Coordinates
version=1
nRows=6
nColumns=46
inDegrees=yes

Units are S.I. units (second, meters, Newtons, ...)
Angles are in degrees.

endheader
time	pelvis_tilt	pelvis_list	pelvis_rotation	pelvis_tx	pelvis_ty	pelvis_tz	bb_angle	bb_tx	bb_ty	bb_tz	hip_flexion_r	hip_adduction_r	hip_rotation_r	knee_angle_r	knee_angle_r_beta	ankle_angle_r	subtalar_angle_r	mtp_angle_r	crank_angle_r	hip_flexion_l	hip_adduction_l	hip_rotation_l	knee_angle_l	knee_angle_l_beta	ankle_angle_l	subtalar_angle_l	mtp_angle_l	crank_angle_l	lumbar_extension	lumbar_bending	lumbar_rotation	arm_flex_r	arm_add_r	arm_rot_r	elbow_flex_r	pro_sup_r	wrist_flex_r	wrist_dev_r	arm_flex_l	arm_add_l	arm_rot_l	elbow_flex_l	pro_sup_l	wrist_flex_l	wrist_dev_l
      5.00000000	    -15.05357904	      1.71711094	      6.03829518	      0.07544726	      1.10955702	     -0.27267390	      0.00000000	      0.50000000	      0.00000000	      0.25000000	     47.84981669	     -6.82443576	      1.23328058	     36.24334126	      0.63256564	    -12.13825364	    -15.69698477	      0.00000000	      0.00000000	     78.55716118	      1.05385227	      5.61725539	    109.80882564	      1.91652556	     -8.93080363	     -9.81687463	      0.00000000	      0.00000000	    -63.67572833	     -2.68920908	     -8.71305961	     89.13982589	    -18.45522414	     29.79952812	     55.81886916	     32.31282027	      0.00000000	      0.00000000	     89.43878819	    -21.38134532	     30.93420943	     65.85456431	     39.14115912	      0.00000000	      0.00000000
      5.00500000	    -15.35075641	      2.12967894	      6.41226801	      0.07550487	      1.10950816	     -0.27145208	      0.00000000	      0.50000000	      0.00000000	      0.25000000	     46.80031539	     -7.45366572	      0.82325001	     34.61297238	      0.60411033	    -13.01040834	    -14.83815640	      0.00000000	      0.00000000	     80.11010058	      1.32920217	      5.33187546	    110.81660049	      1.93411454	     -8.40227787	     -9.51556753	      0.00000000	      0.00000000	    -63.45132629	     -3.01830330	     -9.29670179	     89.09263684	    -18.65112621	     29.81573521	     55.59728177	     32.29967117	      0.00000000	      0.00000000	     89.46729076	    -21.11510885	     31.03099237	     65.91879459	     39.12974794	      0.00000000	      0.00000000
      5.01000000	    -15.44536609	      2.41479123	      6.93238030	      0.07549683	      1.10980298	     -0.27061243	      0.00000000	      0.50000000	      0.00000000	      0.25000000	     45.52163254	     -8.12572440	      0.09149602	     33.05900452	      0.57698848	    -13.92957423	    -13.72599620	      0.00000000	      0.00000000	     81.46186018	      1.72471749	      5.26111701	    111.73656649	      1.95017098	     -7.50758847	     -8.44367976	      0.00000000	      0.00000000	    -63.38021154	     -3.01149270	     -9.58222586	     89.09782258	    -18.89072634	     30.11417682	     54.89778076	     32.30188460	      0.00000000	      0.00000000	     89.47297071	    -20.74573348	     31.24017736	     65.87948830	     39.01493057	      0.00000000	      0.00000000
      5.01500000	    -15.73436753	      2.78384160	      7.16777478	      0.07524843	      1.10954388	     -0.26951517	      0.00000000	      0.50000000	      0.00000000	      0.25000000	     44.64290883	     -8.65579781	     -0.26649710	     31.78879983	      0.55481922	    -14.68917410	    -12.66384312	      0.00000000	      0.00000000	     83.02229081	      1.80733512	      4.89795046	    112.55578124	      1.96446897	     -7.03633652	     -8.22539339	      0.00000000	      0.00000000	    -63.14570445	     -3.30336504	     -9.95387495	     89.05252445	    -19.05865427	     30.16889014	     54.70552913	     32.30875230	      0.00000000	      0.00000000	     89.49086561	    -20.52154918	     31.32119751	     65.93680327	     38.98345687	      0.00000000	      0.00000000
      5.02000000	    -15.88734461	      3.06147035	      7.56498248	      0.07512460	      1.10946506	     -0.26863493	      0.00000000	      0.50000000	      0.00000000	      0.25000000	     43.66368948	     -9.28095119	     -1.02717832	     30.76446590	      0.53694122	    -15.03302857	    -11.23436540	      0.00000000	      0.00000000	     84.41707585	      2.03006276	      4.71645082	    113.24713874	      1.97653544	     -6.44479794	     -7.46526028	      0.00000000	      0.00000000	    -63.02331327	     -3.42450183	    -10.18404979	     89.05347626	    -19.43461139	     30.38996684	     54.26757043	     32.37534048	      0.00000000	      0.00000000	     89.50890062	    -20.14862831	     31.56596702	     65.95861916	     38.84474651	      0.00000000	      0.00000000
      5.02500000	    -16.12930754	      3.36077630	      7.82816462	      0.07476552	      1.10920720	     -0.26759028	      0.00000000	      0.50000000	      0.00000000	      0.25000000	     42.88646662	     -9.77703319	     -1.48545187	     29.87575344	      0.52143026	    -15.60415321	    -10.22880541	      0.00000000	      0.00000000	     85.87520941	      2.13762144	      4.40690575	    113.78381883	      1.98590227	     -6.12251250	     -7.23258405	      0.00000000	      0.00000000	    -62.83696951	     -3.62840423	    -10.43701646	     89.01021070	    -19.65209774	     30.47168928	     54.07389937	     32.39870370	      0.00000000	      0.00000000	     89.52380768	    -19.91746786	     31.64813703	     66.04636179	     38.79670559	      0.00000000	      0.00000000
